<svg width="193" height="43" viewBox="0 0 193 43" fill="none" xmlns="http://www.w3.org/2000/svg">
<g clip-path="url(#clip0_134_1022)">
<path d="M65.0796 33.3783L69.8274 19.4298H73.4172L78.165 33.3783H75.077C74.8068 33.3783 74.5752 33.2237 74.498 32.9533L73.7646 30.4418H69.4028L68.6694 32.9533C68.5922 33.2237 68.3606 33.3783 68.0904 33.3783H65.0796ZM70.2134 27.6984H72.954L72.182 24.9937L71.603 22.5982H71.5644C71.3714 23.6028 71.1784 24.4142 70.9854 24.9937L70.2134 27.6984Z" fill="#161619"/>
<path d="M79.902 33.3784V19.3912H85.0358C86.464 19.3912 87.622 19.7003 88.4712 20.3186C89.3204 20.9368 89.7836 21.8641 89.7836 23.0233C89.7836 23.6028 89.6292 24.1824 89.359 24.7233C89.0888 25.2643 88.6642 25.6893 88.1624 25.9984V26.0371C88.8958 26.2689 89.4362 26.6553 89.8222 27.2348C90.1696 27.8144 90.3626 28.4713 90.3626 29.1668C90.3626 30.5964 89.8608 31.6396 88.8572 32.2965C87.8536 32.992 86.5798 33.3011 85.0744 33.3011L79.902 33.3784ZM83.3374 24.8006H85.0744C85.4604 24.8006 85.7692 24.6847 86.0008 24.4142C86.1938 24.1824 86.3096 23.8733 86.3096 23.4869C86.3096 23.1392 86.1938 22.8301 86.0008 22.6369C85.7692 22.405 85.4604 22.2891 85.0358 22.2891H83.3374V24.8006ZM83.3374 30.4418H85.3832C85.8464 30.4418 86.2324 30.2873 86.464 30.0168C86.7342 29.7463 86.85 29.3986 86.85 28.9736C86.85 28.5486 86.7342 28.2008 86.464 27.969C86.2324 27.6985 85.8464 27.5826 85.3832 27.5826H83.2988V30.4418H83.3374Z" fill="#161619"/>
<path d="M95.8824 33.3784V22.3278H91.6364V19.3912H103.525V22.3278H99.2792V33.3397H95.8824V33.3784Z" fill="#161619"/>
<path d="M104.143 26.3075C104.143 24.2983 104.838 22.5982 106.227 21.2458C107.617 19.8935 109.354 19.198 111.438 19.198C113.523 19.198 115.26 19.8935 116.649 21.2458C118.039 22.5982 118.734 24.2983 118.734 26.3075C118.734 28.394 118.039 30.094 116.649 31.5237C115.26 32.9147 113.523 33.6101 111.438 33.6101C109.354 33.6101 107.617 32.9147 106.227 31.5237C104.838 30.094 104.143 28.3553 104.143 26.3075ZM107.694 26.3075C107.694 27.5053 108.041 28.4712 108.775 29.2826C109.508 30.094 110.396 30.4804 111.438 30.4804C112.48 30.4804 113.368 30.094 114.102 29.2826C114.835 28.4712 115.182 27.5053 115.182 26.3075C115.182 25.187 114.835 24.221 114.102 23.4482C113.368 22.6755 112.48 22.2891 111.438 22.2891C110.396 22.2891 109.508 22.6755 108.775 23.4482C108.041 24.221 107.694 25.1483 107.694 26.3075Z" fill="#161619"/>
<path d="M120.471 33.3783L121.629 19.4298H125.334L127.38 25.3415L128.075 27.6598H128.113C128.384 26.7325 128.615 25.9597 128.808 25.3415L130.854 19.4298H134.56L135.679 33.3783H132.823C132.514 33.3783 132.244 33.1465 132.244 32.8374L131.858 27.1189C131.819 26.8098 131.819 26.462 131.819 26.0756C131.819 25.6892 131.819 25.3801 131.819 25.1483V24.8006H131.78C131.472 25.7665 131.201 26.5393 131.008 27.1575L129.542 31.2145H126.608L125.141 27.0802L124.369 24.7233H124.331C124.369 25.5733 124.369 26.3461 124.331 27.0802L123.945 32.7987C123.906 33.1078 123.674 33.3397 123.366 33.3397L120.471 33.3783Z" fill="#161619"/>
<path d="M137.339 33.3783L142.087 19.4298H145.676L150.424 33.3783H147.336C147.066 33.3783 146.834 33.2237 146.757 32.9533L146.024 30.4418H141.662L140.929 32.9533C140.851 33.2237 140.62 33.3783 140.35 33.3783H137.339ZM142.511 27.6984H145.252L144.48 24.9937L143.901 22.5982H143.862C143.669 23.6028 143.476 24.4142 143.283 24.9937L142.511 27.6984Z" fill="#161619"/>
<path d="M152.045 33.3784V19.3912H154.863C155.172 19.3912 155.442 19.6617 155.442 19.9708V24.762H156.832L159.534 19.7003C159.65 19.5072 159.843 19.3912 160.036 19.3912H163.355L159.572 26.0757V26.1143L163.548 33.3397H160.074C159.843 33.3397 159.65 33.2238 159.534 33.0306L156.755 27.6985H155.365V32.7601C155.365 33.0692 155.095 33.3397 154.786 33.3397L152.045 33.3784Z" fill="#161619"/>
<path d="M164.243 26.3075C164.243 24.2983 164.938 22.5982 166.327 21.2458C167.717 19.8935 169.454 19.198 171.538 19.198C173.623 19.198 175.36 19.8935 176.749 21.2458C178.139 22.5982 178.834 24.2983 178.834 26.3075C178.834 28.394 178.139 30.094 176.749 31.5237C175.36 32.9147 173.623 33.6101 171.538 33.6101C169.454 33.6101 167.717 32.9147 166.327 31.5237C164.938 30.094 164.243 28.3553 164.243 26.3075ZM167.756 26.3075C167.756 27.5053 168.103 28.4712 168.836 29.2826C169.57 30.094 170.458 30.4804 171.5 30.4804C172.542 30.4804 173.43 30.094 174.163 29.2826C174.897 28.4712 175.244 27.5053 175.244 26.3075C175.244 25.187 174.897 24.221 174.163 23.4482C173.43 22.6755 172.542 22.2891 171.5 22.2891C170.458 22.2891 169.57 22.6755 168.836 23.4482C168.103 24.221 167.756 25.1483 167.756 26.3075Z" fill="#161619"/>
<path d="M181.111 33.3784V19.3912H183.929C184.238 19.3912 184.508 19.6617 184.508 19.9708V24.9552H189.565V20.0095C189.565 19.7003 189.835 19.4299 190.144 19.4299H192.961V33.3784H190.144C189.835 33.3784 189.565 33.1079 189.565 32.7988V27.8917H184.508V32.7601C184.508 33.0692 184.238 33.3397 183.929 33.3397H181.111V33.3784Z" fill="#161619"/>
<path fill-rule="evenodd" clip-rule="evenodd" d="M62.4548 0.0333252L44.6216 12.8613C43.0776 13.9432 41.7266 15.2955 40.6844 16.8024L37.3648 21.5163H36.9788L31.9222 19.7003C31.2274 19.4685 30.4554 19.4685 29.7992 19.7776L22.195 22.9846L23.6232 24.6847C24.1636 25.3415 25.0128 25.6506 25.862 25.5347L30.88 24.8779L44.6216 33.8033L46.8604 32.2578C49.4466 30.4804 51.6468 28.2008 53.2294 25.4961L57.7842 17.807L47.7868 23.2164L59.444 14.5614C59.7914 14.2909 60.023 14.0204 60.2546 13.6341C60.4862 13.2863 60.602 12.8999 60.6792 12.5135L61.2582 8.57242L50.18 14.5227L60.0616 7.1428C61.1038 6.37003 61.7986 5.21088 61.9916 3.93581L62.4548 0.0333252Z" fill="#161619"/>
<path fill-rule="evenodd" clip-rule="evenodd" d="M30.301 38.4013L33.2346 39.7537C33.968 40.1014 34.7786 40.0241 35.4348 39.5991L36.5928 38.865L33.6978 36.3535L36.5542 37.6672C37.2876 38.0149 38.0982 37.9376 38.7544 37.5126L39.951 36.7785L37.1332 34.3056L39.9124 35.5807C40.6458 35.9284 41.4564 35.8512 42.1126 35.4261L43.8496 34.3056L30.6484 25.8052L25.9778 26.4234C25.7462 26.462 25.5146 26.462 25.283 26.4234C24.3566 26.3461 23.4688 25.8438 22.8512 25.1097L20.7668 22.5982L24.704 20.9367L21.809 16.8024C20.7282 15.2569 19.3772 13.9045 17.8718 12.8613L0 0.0333252L0.579 3.89717C0.772 5.17224 1.4668 6.33139 2.509 7.10416L12.352 14.4841L1.2738 8.49515L1.8528 12.4363C1.93 12.8613 2.0458 13.209 2.2774 13.5568C2.509 13.9432 2.7406 14.2136 3.088 14.4841L14.7452 23.2164L4.7864 17.807L9.2254 25.3415C10.8852 28.1621 13.1626 30.5577 15.9032 32.3351L29.6448 41.6469C30.4168 42.1492 31.4204 42.1879 32.1924 41.6856L33.2732 40.9901L30.301 38.4013Z" fill="#161619"/>
<path fill-rule="evenodd" clip-rule="evenodd" d="M28.8728 11.5862H27.2516L27.9464 6.91092H28.178L28.8728 11.5862ZM26.248 6.91092H27.2516V6.9882L26.7884 7.2973L25.6304 15.1409H26.7884L27.1744 12.7067H29.1816L29.5676 15.1409H30.7256L29.2974 5.79041H26.3638V6.94956L26.248 6.91092ZM33.0802 5.79041H31.266V6.94956H32.424V7.02684L31.9608 7.33594V15.1409H33.1188V10.6975H33.6978L35.7822 15.1409H37.056L34.74 10.1952L36.8244 5.82904H35.5506L33.775 9.57697H33.196V5.79041H33.0802Z" fill="#161619"/>
</g>
<defs>
<clipPath id="clip0_134_1022">
<rect width="193" height="42" fill="white" transform="translate(0 0.0333252)"/>
</clipPath>
</defs>
</svg>
