<?xml version="1.0" encoding="UTF-8"?>
<svg id="Layer_2" data-name="Layer 2" xmlns="http://www.w3.org/2000/svg" viewBox="0 0 315.86 90.34">
  <defs>
    <style>
      .cls-1 {
        fill: #161619;
      }
    </style>
  </defs>
  <g id="Layer_1-2" data-name="Layer 1">
    <path class="cls-1" d="M111.49,77.51v-42.14h9.07l17.11,28.95v-28.95h8.55v42.14h-8.95l-17.22-28.95v28.95h-8.55ZM173.36,68.07h8.29c-.84,3.28-2.53,5.85-5.08,7.71s-5.65,2.79-9.31,2.79c-4.5,0-8.07-1.51-10.7-4.53-2.63-3.02-3.95-7.12-3.95-12.29s1.3-9.11,3.89-12.04c2.59-2.94,6.14-4.41,10.64-4.41,4.77,0,8.45,1.44,11.04,4.33s3.89,7,3.89,12.34c0,.59,0,1.03-.01,1.33,0,.3-.03.58-.07.84h-20.77c.11,2.44.71,4.28,1.79,5.52,1.08,1.24,2.63,1.86,4.65,1.86,1.43,0,2.6-.28,3.52-.84.92-.56,1.64-1.44,2.17-2.62ZM161.24,58.68h12.24c-.08-2.1-.63-3.69-1.67-4.79s-2.53-1.65-4.48-1.65c-1.81,0-3.24.55-4.28,1.66-1.04,1.11-1.64,2.7-1.82,4.78ZM185.84,67.38h8.3c.08,1.58.65,2.76,1.72,3.53,1.07.77,2.67,1.16,4.81,1.16,1.62,0,2.87-.27,3.76-.82.89-.54,1.33-1.31,1.33-2.3,0-1.41-1.66-2.47-4.98-3.17-1.35-.29-2.43-.53-3.23-.74-4.04-1.03-6.85-2.25-8.42-3.66s-2.36-3.32-2.36-5.72c0-3.18,1.15-5.71,3.45-7.57s5.41-2.79,9.34-2.79c4.16,0,7.42.93,9.8,2.77,2.37,1.85,3.64,4.45,3.79,7.81h-8.1c-.06-1.32-.56-2.34-1.5-3.06-.94-.72-2.25-1.09-3.93-1.09-1.58,0-2.76.24-3.53.71-.77.48-1.16,1.19-1.16,2.15,0,1.24,2.07,2.34,6.21,3.29.95.21,1.71.38,2.26.52,4.14.97,6.97,2.15,8.48,3.52,1.52,1.37,2.27,3.31,2.27,5.81,0,3.53-1.24,6.22-3.73,8.07-2.49,1.85-6.11,2.77-10.86,2.77-4.29,0-7.65-.96-10.07-2.89-2.42-1.93-3.63-4.58-3.63-7.95v-.34ZM233.38,77.74c-.76.02-1.67.05-2.73.1-1.06.05-1.73.07-2.02.07-3.19,0-5.36-.6-6.54-1.79s-1.76-3.54-1.76-7.05v-16.82h-4.12v-5.84h4.12v-8.5h8.24v8.5h4.81v5.84h-4.81v17.22c0,.82.18,1.36.54,1.62.36.26,1.11.39,2.23.39h2.03v6.26ZM246.32,64.75h5.32c.08,2.88.87,5.1,2.37,6.67s3.63,2.35,6.38,2.35,4.77-.71,6.31-2.15c1.54-1.43,2.3-3.39,2.3-5.89,0-2.29-.75-4.06-2.26-5.32-1.51-1.26-3.62-1.89-6.35-1.89-.55,0-1.47.04-2.75.11l-.2.03.03-4.63c.25.02.5.03.76.04.26,0,.59.01.99.01,2.94,0,5.05-.5,6.35-1.5s1.95-2.61,1.95-4.82c0-2.06-.62-3.64-1.86-4.75s-3.01-1.66-5.32-1.66c-2.59,0-4.55.73-5.88,2.19-1.33,1.46-1.99,3.62-1.99,6.48h-5.21v-.29c0-4.02,1.15-7.23,3.46-9.61,2.31-2.38,5.41-3.58,9.3-3.58,4.16,0,7.38.96,9.68,2.89s3.45,4.62,3.45,8.07c0,1.98-.43,3.67-1.29,5.05-.86,1.38-2.13,2.44-3.8,3.16,2.17.8,3.82,2.05,4.93,3.73,1.12,1.69,1.67,3.78,1.67,6.28,0,3.93-1.33,7.07-3.98,9.43-2.65,2.36-6.21,3.53-10.67,3.53-4.18,0-7.5-1.23-9.98-3.7-2.48-2.47-3.72-5.78-3.72-9.94v-.29ZM281.65,77.51v-42.14h16.05c5.87,0,10.37,1.75,13.49,5.26,3.12,3.51,4.68,8.57,4.68,15.19s-1.62,12.17-4.85,15.98c-3.23,3.8-7.75,5.71-13.54,5.71h-15.82ZM297.21,40.23h-9.84v32.12h9.84c4.21,0,7.4-1.37,9.55-4.1,2.15-2.74,3.23-6.78,3.23-12.14s-1.1-9.06-3.29-11.79c-2.19-2.73-5.36-4.09-9.5-4.09ZM62.36,29.86C47.05,10.51,24.09,1.89,0,0c15.11,13.76,30.1,28.05,40.35,45.96-11.29,12.06-18.04,28.06-20.39,44.38l26.83-20.7c9.18-6.15,22.41-7.79,27.55-18.67,1.33-2.81,1.48-5.69,2.61-8.42,3.15-7.61,11.15-9.92,18.64-11.04.44-.47-1.38-2.02-1.8-2.4-9.42-8.57-21.17-2.56-31.44.76Z"/>
  </g>
</svg>